solid 8. Cabinet Correct Measurements
   facet normal -1.000000e+00 0.000000e+00 0.000000e+00
      outer loop
         vertex 0.000000e+00 0.000000e+00 3.720000e+02
         vertex 0.000000e+00 5.020000e+02 3.720000e+02
         vertex 0.000000e+00 0.000000e+00 0.000000e+00
      endloop
   endfacet
   facet normal -1.000000e+00 0.000000e+00 0.000000e+00
      outer loop
         vertex 0.000000e+00 0.000000e+00 0.000000e+00
         vertex 0.000000e+00 5.020000e+02 3.720000e+02
         vertex 0.000000e+00 5.020000e+02 0.000000e+00
      endloop
   endfacet
   facet normal 0.000000e+00 -1.000000e+00 0.000000e+00
      outer loop
         vertex 9.290000e+02 0.000000e+00 0.000000e+00
         vertex 0.000000e+00 0.000000e+00 3.720000e+02
         vertex 0.000000e+00 0.000000e+00 0.000000e+00
      endloop
   endfacet
   facet normal 0.000000e+00 0.000000e+00 -1.000000e+00
      outer loop
         vertex 0.000000e+00 0.000000e+00 0.000000e+00
         vertex 0.000000e+00 5.020000e+02 0.000000e+00
         vertex 9.290000e+02 0.000000e+00 0.000000e+00
      endloop
   endfacet
   facet normal -0.000000e+00 -1.000000e+00 -0.000000e+00
      outer loop
         vertex 9.290000e+02 0.000000e+00 3.720000e+02
         vertex 0.000000e+00 0.000000e+00 3.720000e+02
         vertex 9.290000e+02 0.000000e+00 0.000000e+00
      endloop
   endfacet
   facet normal -0.000000e+00 0.000000e+00 1.000000e+00
      outer loop
         vertex 2.000001e+01 1.999998e+01 3.720000e+02
         vertex 0.000000e+00 0.000000e+00 3.720000e+02
         vertex 9.090000e+02 1.999998e+01 3.720000e+02
      endloop
   endfacet
   facet normal 0.000000e+00 0.000000e+00 1.000000e+00
      outer loop
         vertex 9.090000e+02 1.999998e+01 3.720000e+02
         vertex 0.000000e+00 0.000000e+00 3.720000e+02
         vertex 9.290000e+02 0.000000e+00 3.720000e+02
      endloop
   endfacet
   facet normal 0.000000e+00 0.000000e+00 1.000000e+00
      outer loop
         vertex 2.000001e+01 1.999998e+01 3.720000e+02
         vertex 0.000000e+00 5.020000e+02 3.720000e+02
         vertex 0.000000e+00 0.000000e+00 3.720000e+02
      endloop
   endfacet
   facet normal -0.000000e+00 1.000000e+00 0.000000e+00
      outer loop
         vertex 0.000000e+00 5.020000e+02 3.720000e+02
         vertex 9.290000e+02 5.020000e+02 3.720000e+02
         vertex 0.000000e+00 5.020000e+02 0.000000e+00
      endloop
   endfacet
   facet normal 0.000000e+00 -0.000000e+00 1.000000e+00
      outer loop
         vertex 2.000001e+01 4.820000e+02 3.720000e+02
         vertex 9.290000e+02 5.020000e+02 3.720000e+02
         vertex 0.000000e+00 5.020000e+02 3.720000e+02
      endloop
   endfacet
   facet normal 0.000000e+00 0.000000e+00 1.000000e+00
      outer loop
         vertex 2.000001e+01 4.820000e+02 3.720000e+02
         vertex 0.000000e+00 5.020000e+02 3.720000e+02
         vertex 2.000001e+01 1.999998e+01 3.720000e+02
      endloop
   endfacet
   facet normal 0.000000e+00 1.000000e+00 0.000000e+00
      outer loop
         vertex 0.000000e+00 5.020000e+02 0.000000e+00
         vertex 9.290000e+02 5.020000e+02 3.720000e+02
         vertex 9.290000e+02 5.020000e+02 0.000000e+00
      endloop
   endfacet
   facet normal 0.000000e+00 0.000000e+00 -1.000000e+00
      outer loop
         vertex 9.290000e+02 0.000000e+00 0.000000e+00
         vertex 0.000000e+00 5.020000e+02 0.000000e+00
         vertex 9.290000e+02 5.020000e+02 0.000000e+00
      endloop
   endfacet
   facet normal 1.000000e+00 0.000000e+00 0.000000e+00
      outer loop
         vertex 9.290000e+02 5.020000e+02 0.000000e+00
         vertex 9.290000e+02 0.000000e+00 3.720000e+02
         vertex 9.290000e+02 0.000000e+00 0.000000e+00
      endloop
   endfacet
   facet normal 1.000000e+00 0.000000e+00 0.000000e+00
      outer loop
         vertex 9.290000e+02 5.020000e+02 3.720000e+02
         vertex 9.290000e+02 0.000000e+00 3.720000e+02
         vertex 9.290000e+02 5.020000e+02 0.000000e+00
      endloop
   endfacet
   facet normal -0.000000e+00 0.000000e+00 1.000000e+00
      outer loop
         vertex 9.090000e+02 1.999998e+01 3.720000e+02
         vertex 9.290000e+02 0.000000e+00 3.720000e+02
         vertex 9.090000e+02 4.820000e+02 3.720000e+02
      endloop
   endfacet
   facet normal -0.000000e+00 0.000000e+00 1.000000e+00
      outer loop
         vertex 9.090000e+02 4.820000e+02 3.720000e+02
         vertex 9.290000e+02 0.000000e+00 3.720000e+02
         vertex 9.290000e+02 5.020000e+02 3.720000e+02
      endloop
   endfacet
   facet normal 0.000000e+00 1.000000e+00 0.000000e+00
      outer loop
         vertex 9.090000e+02 1.999998e+01 3.720000e+02
         vertex 9.090000e+02 1.999998e+01 2.000000e+01
         vertex 2.000001e+01 1.999998e+01 3.720000e+02
      endloop
   endfacet
   facet normal 0.000000e+00 1.000000e+00 0.000000e+00
      outer loop
         vertex 2.000001e+01 1.999998e+01 3.720000e+02
         vertex 9.090000e+02 1.999998e+01 2.000000e+01
         vertex 2.000001e+01 1.999998e+01 2.000000e+01
      endloop
   endfacet
   facet normal 1.000000e+00 0.000000e+00 0.000000e+00
      outer loop
         vertex 2.000001e+01 4.820000e+02 3.720000e+02
         vertex 2.000001e+01 1.999998e+01 3.720000e+02
         vertex 2.000001e+01 4.820000e+02 2.000000e+01
      endloop
   endfacet
   facet normal 1.000000e+00 0.000000e+00 0.000000e+00
      outer loop
         vertex 2.000001e+01 4.820000e+02 2.000000e+01
         vertex 2.000001e+01 1.999998e+01 3.720000e+02
         vertex 2.000001e+01 1.999998e+01 2.000000e+01
      endloop
   endfacet
   facet normal -1.000000e+00 0.000000e+00 0.000000e+00
      outer loop
         vertex 9.090000e+02 1.999998e+01 3.720000e+02
         vertex 9.090000e+02 4.820000e+02 3.720000e+02
         vertex 9.090000e+02 1.999998e+01 2.000000e+01
      endloop
   endfacet
   facet normal 0.000000e+00 -0.000000e+00 1.000000e+00
      outer loop
         vertex 9.090000e+02 4.820000e+02 3.720000e+02
         vertex 9.290000e+02 5.020000e+02 3.720000e+02
         vertex 2.000001e+01 4.820000e+02 3.720000e+02
      endloop
   endfacet
   facet normal 0.000000e+00 -1.000000e+00 0.000000e+00
      outer loop
         vertex 2.000001e+01 4.820000e+02 2.000000e+01
         vertex 9.090000e+02 4.820000e+02 3.720000e+02
         vertex 2.000001e+01 4.820000e+02 3.720000e+02
      endloop
   endfacet
   facet normal 0.000000e+00 -1.000000e+00 0.000000e+00
      outer loop
         vertex 9.090000e+02 4.820000e+02 2.000000e+01
         vertex 9.090000e+02 4.820000e+02 3.720000e+02
         vertex 2.000001e+01 4.820000e+02 2.000000e+01
      endloop
   endfacet
   facet normal -1.000000e+00 0.000000e+00 0.000000e+00
      outer loop
         vertex 9.090000e+02 1.999998e+01 2.000000e+01
         vertex 9.090000e+02 4.820000e+02 3.720000e+02
         vertex 9.090000e+02 4.820000e+02 2.000000e+01
      endloop
   endfacet
   facet normal 0.000000e+00 -0.000000e+00 1.000000e+00
      outer loop
         vertex 9.090000e+02 1.999998e+01 2.000000e+01
         vertex 9.090000e+02 4.820000e+02 2.000000e+01
         vertex 2.000001e+01 1.999998e+01 2.000000e+01
      endloop
   endfacet
   facet normal 0.000000e+00 0.000000e+00 1.000000e+00
      outer loop
         vertex 2.000001e+01 1.999998e+01 2.000000e+01
         vertex 9.090000e+02 4.820000e+02 2.000000e+01
         vertex 2.000001e+01 4.820000e+02 2.000000e+01
      endloop
   endfacet
endsolid 8. Cabinet Correct Measurements